<svg width="65" height="65" viewBox="0 0 65 65" fill="none" xmlns="http://www.w3.org/2000/svg">
<circle cx="32.5" cy="32.5" r="32.5" fill="#2196F3"/>
<path d="M18.1538 19.5386C15.8609 19.5386 14 21.3995 14 23.6924V40.3078C14 42.6007 15.8609 44.4617 18.1538 44.4617H45.8462C48.1391 44.4617 50 42.6007 50 40.3078V23.6924C50 21.3995 48.1391 19.5386 45.8462 19.5386H18.1538ZM18.1538 22.3078H45.8462C46.6091 22.3078 47.2308 22.9295 47.2308 23.6924V24.3847L32 32.6066L16.7692 24.3847V23.6924C16.7692 22.9295 17.3909 22.3078 18.1538 22.3078ZM16.7692 24.7738L25.8122 31.827L16.9423 40.9143L27.7603 33.2117L32 35.938L36.2411 33.2117L47.0577 40.9143L38.1878 31.827L47.2308 24.7738V40.3078C47.2231 40.521 47.1637 40.7291 47.0577 40.9143C46.8292 41.3643 46.3848 41.6924 45.8462 41.6924H18.1538C17.6152 41.6924 17.1708 41.3657 16.9423 40.9143C16.8365 40.7296 16.7771 40.5205 16.7692 40.3078V24.7738Z" fill="white"/>
</svg>
