<svg width="36" height="36" viewBox="0 0 36 36" fill="none" xmlns="http://www.w3.org/2000/svg">
<g clip-path="url(#clip0_427_1469)">
<path d="M10.2856 3.6677C12.1801 5.0492 13.6141 6.9902 14.8351 8.7737L15.7921 10.1807C16.0893 10.615 16.2252 11.1396 16.1765 11.6636C16.1277 12.1877 15.8973 12.6781 15.5251 13.0502L13.4911 15.0842L13.7056 15.5402C14.2306 16.6037 15.1366 18.1352 16.5001 19.5002C17.4416 20.4275 18.503 21.2246 19.6561 21.8702L20.2066 22.1657L20.6971 22.4087L20.9161 22.5092L22.9486 20.4752C23.3221 20.1022 23.8147 19.8721 24.3406 19.8253C24.8664 19.7784 25.3919 19.9176 25.8256 20.2187L27.3466 21.2732C29.0746 22.4882 30.8791 23.8727 32.2816 25.6697C32.524 25.9816 32.6782 26.3528 32.7281 26.7447C32.778 27.1365 32.7217 27.5346 32.5651 27.8972C31.3096 30.8267 28.1326 33.3212 24.8281 33.1982L24.3781 33.1742L24.0286 33.1442L23.6416 33.0992L23.2201 33.0422L22.7626 32.9657L22.2736 32.8697L21.7546 32.7542L21.2056 32.6132L20.6281 32.4482L20.0251 32.2532C17.2561 31.3142 13.7416 29.4692 10.1356 25.8632C6.53107 22.2587 4.68607 18.7442 3.74707 15.9752L3.55207 15.3722L3.38707 14.7947L3.24607 14.2457L3.12907 13.7267C3.09527 13.5642 3.06377 13.4011 3.03457 13.2377L2.95957 12.7802L2.89957 12.3587L2.85607 11.9717L2.82607 11.6222L2.80207 11.1722C2.68057 7.8782 5.20207 4.6787 8.11807 3.4292C8.46903 3.27765 8.85337 3.21995 9.23336 3.26176C9.61336 3.30358 9.97595 3.44346 10.2856 3.6677ZM8.89507 6.3797C7.28707 7.2197 5.73007 9.1397 5.80057 11.0612L5.83057 11.5532L5.86357 11.8607L5.90707 12.2057L5.96707 12.5852L6.04357 13.0007L6.14107 13.4477L6.26107 13.9277L6.40507 14.4362L6.57607 14.9732C6.63907 15.1562 6.70507 15.3437 6.77707 15.5357L7.00807 16.1237L7.27207 16.7342C8.21407 18.8072 9.75007 21.2342 12.2596 23.7422C14.7676 26.2502 17.1946 27.7877 19.2676 28.7297L19.8781 28.9937L20.4661 29.2247C20.6581 29.2967 20.8456 29.3627 21.0286 29.4257L21.5656 29.5967L22.0756 29.7407L22.5541 29.8607L23.0011 29.9582L23.4166 30.0347L23.7976 30.0947L24.1426 30.1397L24.4486 30.1697L24.9406 30.1997C26.8366 30.2702 28.7716 28.7222 29.6086 27.1352C28.5406 25.8827 27.2146 24.8552 25.7521 23.8202L24.6301 23.0387L24.3451 23.3372L23.7361 24.0017L23.4136 24.3407C22.5346 25.2362 21.5086 25.9967 20.2786 25.5002L19.9396 25.3577L19.5256 25.1717L19.2946 25.0622L18.7876 24.8087L18.2311 24.5087C16.8228 23.725 15.5274 22.7536 14.3806 21.6212C13.2482 20.4743 12.2768 19.179 11.4931 17.7707L11.1931 17.2157L10.9381 16.7072L10.6441 16.0622L10.5001 15.7202C10.0336 14.5667 10.6756 13.5932 11.4961 12.7502L11.8321 12.4202L12.6676 11.6507L12.9676 11.3657L12.2581 10.3262C11.2036 8.7962 10.1731 7.4162 8.89357 6.3782L8.89507 6.3797ZM22.4896 9.0602L22.6636 9.0797C23.7554 9.2723 24.7583 9.80562 25.5284 10.6032C26.2985 11.4008 26.7964 12.4218 26.9506 13.5197C27.0055 13.8995 26.9129 14.2859 26.6917 14.5994C26.4704 14.9129 26.1375 15.1298 25.7612 15.2053C25.385 15.2808 24.9941 15.2093 24.6691 15.0054C24.344 14.8015 24.1094 14.4808 24.0136 14.1092L23.9791 13.9367C23.9187 13.5064 23.735 13.1027 23.4502 12.7745C23.1654 12.4463 22.7916 12.2076 22.3741 12.0872L22.1416 12.0347C21.7649 11.9679 21.428 11.7598 21.1997 11.4529C20.9714 11.1459 20.8691 10.7634 20.9135 10.3834C20.958 10.0035 21.1459 9.65489 21.4389 9.40892C21.7318 9.16296 22.1077 9.03821 22.4896 9.0602ZM22.5001 4.5002C24.887 4.5002 27.1762 5.44841 28.864 7.13624C30.5519 8.82407 31.5001 11.1133 31.5001 13.5002C31.4996 13.8825 31.3533 14.2502 31.0908 14.5283C30.8283 14.8063 30.4696 14.9736 30.088 14.996C29.7063 15.0184 29.3305 14.8942 29.0373 14.6488C28.7441 14.4034 28.5557 14.0553 28.5106 13.6757L28.5001 13.5002C28.5006 11.9768 27.9214 10.5103 26.8801 9.39849C25.8387 8.28664 24.4132 7.61277 22.8931 7.5137L22.5001 7.5002C22.1022 7.5002 21.7207 7.34217 21.4394 7.06086C21.1581 6.77956 21.0001 6.39803 21.0001 6.0002C21.0001 5.60238 21.1581 5.22085 21.4394 4.93954C21.7207 4.65824 22.1022 4.5002 22.5001 4.5002Z" fill="#F04AC5"/>
</g>
<defs>
<clipPath id="clip0_427_1469">
<rect width="36" height="36" fill="white"/>
</clipPath>
</defs>
</svg>
