<svg width="65" height="65" viewBox="0 0 65 65" fill="none" xmlns="http://www.w3.org/2000/svg">
<circle cx="32.5" cy="32.5" r="32.5" fill="#7073AF"/>
<path d="M32 20C35.3 20 38 22.7 38 26C38 29.15 34.85 34.25 32 37.85C29.15 34.1 26 29.15 26 26C26 22.7 28.7 20 32 20ZM32 17C27.05 17 23 21.05 23 26C23 32.75 32 42.5 32 42.5C32 42.5 41 32.6 41 26C41 21.05 36.95 17 32 17ZM32 23C30.35 23 29 24.35 29 26C29 27.65 30.35 29 32 29C33.65 29 35 27.65 35 26C35 24.35 33.65 23 32 23ZM44 42.5C44 45.8 38.6 48.5 32 48.5C25.4 48.5 20 45.8 20 42.5C20 40.55 21.8 38.9 24.65 37.7L25.55 39.05C24.05 39.8 23 40.7 23 41.75C23 43.85 27.05 45.5 32 45.5C36.95 45.5 41 43.85 41 41.75C41 40.7 39.95 39.8 38.3 39.05L39.2 37.7C42.2 38.9 44 40.55 44 42.5Z" fill="#F1F1F1"/>
</svg>
