<svg width="36" height="36" viewBox="0 0 36 36" fill="none" xmlns="http://www.w3.org/2000/svg">
<path d="M4.15385 5.53857C1.86092 5.53857 0 7.3995 0 9.69242V26.3078C0 28.6007 1.86092 30.4617 4.15385 30.4617H31.8462C34.1391 30.4617 36 28.6007 36 26.3078V9.69242C36 7.3995 34.1391 5.53857 31.8462 5.53857H4.15385ZM4.15385 8.30781H31.8462C32.6091 8.30781 33.2308 8.9295 33.2308 9.69242V10.3847L18 18.6066L2.76923 10.3847V9.69242C2.76923 8.9295 3.39092 8.30781 4.15385 8.30781ZM2.76923 10.7738L11.8122 17.827L2.94231 26.9143L13.7603 19.2117L18 21.938L22.2411 19.2117L33.0577 26.9143L24.1878 17.827L33.2308 10.7738V26.3078C33.2231 26.521 33.1637 26.7291 33.0577 26.9143C32.8292 27.3643 32.3848 27.6924 31.8462 27.6924H4.15385C3.61523 27.6924 3.17077 27.3657 2.94231 26.9143C2.8365 26.7296 2.77711 26.5205 2.76923 26.3078V10.7738Z" fill="white"/>
</svg>
