<svg width="175" height="35" viewBox="0 0 175 35" fill="none" xmlns="http://www.w3.org/2000/svg">
<g clip-path="url(#clip0_427_2596)">
<path d="M171.448 14.9306L168.232 23.1211H168.135L164.78 14.9306H161.746L166.774 26.3802L163.901 32.7486H166.849L174.6 14.9306H171.448ZM148.72 8.13368H145.911V27.0235H148.72V8.13368ZM138.149 8.13368H131.395V27.0235H134.225V19.8729H138.16C138.953 19.9 139.744 19.7693 140.486 19.4883C141.228 19.2074 141.907 18.7818 142.484 18.2362C143.06 17.6906 143.523 17.0359 143.844 16.3102C144.166 15.5845 144.34 14.8021 144.356 14.0086C144.34 13.2136 144.165 12.4298 143.843 11.7028C143.522 10.9757 143.058 10.3199 142.481 9.77326C141.903 9.22667 141.223 8.80024 140.479 8.51872C139.736 8.2372 138.944 8.10655 138.149 8.13368ZM138.224 17.2354H134.225V10.8028H138.235C139.088 10.8028 139.906 11.1417 140.509 11.7448C141.112 12.348 141.451 13.1661 141.451 14.0191C141.451 14.8721 141.112 15.6902 140.509 16.2933C139.906 16.8965 139.088 17.2354 138.235 17.2354H138.224H138.224ZM155.646 14.5231C154.617 14.464 153.593 14.7064 152.7 15.2205C151.807 15.7346 151.083 16.4982 150.617 17.4175L153.126 18.4897C153.375 18.0352 153.751 17.6631 154.208 17.4193C154.665 17.1755 155.183 17.0706 155.699 17.1174C156.053 17.082 156.411 17.1169 156.752 17.2202C157.093 17.3235 157.41 17.493 157.685 17.7192C157.959 17.9453 158.187 18.2236 158.354 18.538C158.521 18.8524 158.624 19.1966 158.658 19.5511V19.7441C157.759 19.2579 156.753 19.0036 155.731 19.0043C153.04 19.0043 150.296 20.4839 150.296 23.2927C150.296 25.8229 152.494 27.4524 154.981 27.4524C155.689 27.4973 156.395 27.3496 157.026 27.0249C157.656 26.7002 158.187 26.2107 158.561 25.6084H158.669V27.0664H161.413V19.7978C161.413 16.4422 158.905 14.5768 155.667 14.5768L155.646 14.5231ZM155.313 24.8795C154.391 24.8795 153.105 24.4078 153.105 23.2713C153.105 21.8134 154.702 21.2561 156.096 21.2561C156.995 21.2316 157.883 21.4501 158.668 21.8882C158.565 22.708 158.168 23.4626 157.551 24.0125C156.935 24.5624 156.139 24.8704 155.313 24.8795ZM53.6577 27.431C48.106 27.4494 43.5714 23.0008 43.4834 17.4498C43.5718 11.8988 48.106 7.45025 53.6577 7.4686C54.9288 7.44748 56.1914 7.68031 57.3715 8.15347C58.5515 8.62662 59.6252 9.33057 60.5296 10.2241L58.5891 12.1432C57.273 10.8535 55.5003 10.1366 53.6577 10.149C49.6492 10.149 46.3996 13.3985 46.3996 17.407C46.3996 21.4154 49.6492 24.665 53.6577 24.665C54.5945 24.7034 55.5289 24.5448 56.4006 24.1994C57.2722 23.8541 58.0617 23.3296 58.7179 22.66C59.5905 21.7193 60.1161 20.5093 60.2082 19.2296H53.6577V16.5815H62.8776C62.9782 17.144 63.0248 17.7145 63.017 18.2862C63.1096 20.6594 62.2575 22.9726 60.6476 24.7187C59.7386 25.6368 58.6463 26.3528 57.4418 26.8202C56.2374 27.2874 54.9479 27.4958 53.6577 27.431ZM77.2758 20.9985C77.3113 21.8562 77.173 22.7122 76.8692 23.5151C76.5654 24.318 76.1024 25.0512 75.5081 25.6707C74.9137 26.2901 74.2003 26.783 73.4106 27.1196C72.6209 27.4563 71.7714 27.6299 70.9129 27.6299C70.0544 27.6299 69.2049 27.4563 68.4152 27.1196C67.6255 26.783 66.9121 26.2901 66.3177 25.6707C65.7234 25.0512 65.2604 24.318 64.9566 23.5151C64.6528 22.7122 64.5145 21.8562 64.55 20.9985C64.5145 20.1407 64.6528 19.2847 64.9566 18.4818C65.2604 17.6789 65.7234 16.9457 66.3177 16.3263C66.9121 15.7068 67.6255 15.214 68.4152 14.8773C69.2049 14.5406 70.0544 14.367 70.9129 14.367C71.7714 14.367 72.6209 14.5406 73.4106 14.8773C74.2003 15.214 74.9137 15.7068 75.5081 16.3263C76.1024 16.9457 76.5654 17.6789 76.8692 18.4818C77.173 19.2847 77.3113 20.1407 77.2758 20.9985ZM74.4884 20.9985C74.5355 20.5005 74.4781 19.9982 74.3199 19.5238C74.1616 19.0493 73.906 18.6131 73.5694 18.2431C73.2328 17.8732 72.8226 17.5776 72.3652 17.3754C71.9077 17.1731 71.4131 17.0686 70.9129 17.0686C70.4127 17.0686 69.9181 17.1731 69.4606 17.3754C69.0032 17.5776 68.593 17.8732 68.2564 18.2431C67.9198 18.6131 67.6642 19.0493 67.5059 19.5238C67.3477 19.9982 67.2903 20.5005 67.3374 20.9985C67.2903 21.4964 67.3477 21.9987 67.5059 22.4732C67.6642 22.9476 67.9198 23.3838 68.2564 23.7538C68.593 24.1237 69.0032 24.4193 69.4606 24.6215C69.9181 24.8238 70.4127 24.9283 70.9129 24.9283C71.4131 24.9283 71.9077 24.8238 72.3652 24.6215C72.8226 24.4193 73.2328 24.1237 73.5694 23.7538C73.906 23.3838 74.1616 22.9476 74.3199 22.4732C74.4781 21.9987 74.5355 21.4964 74.4884 20.9985ZM91.5346 20.9985C91.5346 24.5097 88.6881 27.3559 85.1772 27.3559C81.6659 27.3559 78.8194 24.5097 78.8194 20.9985C78.8194 17.4872 81.6659 14.641 85.1772 14.641C88.6881 14.641 91.5346 17.4872 91.5346 20.9985ZM88.7581 20.9985C88.8052 20.5005 88.7478 19.9982 88.5896 19.5238C88.4313 19.0493 88.1757 18.6131 87.8391 18.2431C87.5025 17.8732 87.0923 17.5776 86.6349 17.3754C86.1774 17.1731 85.6828 17.0686 85.1826 17.0686C84.6824 17.0686 84.1878 17.1731 83.7304 17.3754C83.2729 17.5776 82.8627 17.8732 82.5261 18.2431C82.1895 18.6131 81.9339 19.0493 81.7757 19.5238C81.6174 19.9982 81.56 20.5005 81.6071 20.9985C81.5597 21.4965 81.6169 21.999 81.7751 22.4737C81.9332 22.9483 82.1888 23.3847 82.5254 23.7549C82.862 24.125 83.2722 24.4208 83.7298 24.6232C84.1873 24.8255 84.6821 24.9301 85.1824 24.9301C85.6828 24.9301 86.1776 24.8255 86.6351 24.6232C87.0927 24.4208 87.5029 24.125 87.8395 23.7549C88.1761 23.3847 88.4317 22.9483 88.5898 22.4737C88.748 21.999 88.8055 21.4965 88.7581 20.9985ZM105.45 14.9628V26.509C105.45 31.2475 102.631 33.1988 99.3072 33.1988C98.089 33.2091 96.895 32.8581 95.8761 32.1903C94.8572 31.5225 94.0589 30.5678 93.5822 29.4466L96.0158 28.3744C96.2682 29.029 96.7079 29.5947 97.2799 30.0008C97.8519 30.407 98.5309 30.6356 99.2321 30.6582C101.377 30.6582 102.684 29.3396 102.684 26.8842V25.9622H102.577C102.157 26.4315 101.641 26.8053 101.064 27.0587C100.487 27.312 99.8622 27.439 99.2321 27.431C95.6794 27.431 92.7995 24.5512 92.7995 20.9985C92.7995 17.4457 95.6794 14.5659 99.2321 14.5659C99.8663 14.5519 100.496 14.6727 101.08 14.9204C101.664 15.168 102.189 15.5368 102.62 16.0024H102.727V14.9306H105.45V14.9628ZM102.952 21.0307C102.992 20.5455 102.933 20.0573 102.78 19.5952C102.627 19.133 102.383 18.7062 102.062 18.3403C101.741 17.9743 101.35 17.6765 100.912 17.4646C100.473 17.2528 99.997 17.1311 99.5108 17.1069C99.0151 17.1233 98.5276 17.2384 98.0769 17.4454C97.6262 17.6524 97.2213 17.9472 96.8859 18.3126C96.5505 18.6779 96.2913 19.1065 96.1234 19.5732C95.9556 20.0399 95.8825 20.5354 95.9084 21.0307C95.8855 21.5227 95.961 22.0142 96.1305 22.4766C96.3001 22.939 96.5603 23.3628 96.8958 23.7233C97.2313 24.0838 97.6355 24.3736 98.0845 24.5759C98.5336 24.7781 99.0185 24.8886 99.5108 24.9009C99.9941 24.8822 100.469 24.7661 100.906 24.5595C101.343 24.3529 101.734 24.0601 102.056 23.6987C102.377 23.3373 102.622 22.9147 102.776 22.4562C102.93 21.9978 102.99 21.5129 102.952 21.0307ZM110.414 8.15475V27.0344H107.584V8.15475H110.414ZM121.564 23.1215L123.772 24.5794C123.183 25.4592 122.385 26.1798 121.45 26.6773C120.515 27.1747 119.471 27.4335 118.412 27.4307C117.569 27.4427 116.733 27.2837 115.954 26.9632C115.174 26.6427 114.468 26.1674 113.878 25.5661C113.288 24.9647 112.825 24.2499 112.519 23.4648C112.213 22.6797 112.07 21.8407 112.097 20.9985C111.837 18.001 113.868 15.2857 116.817 14.6876C119.765 14.0894 122.694 15.7992 123.622 18.6614L123.912 19.4012L115.335 22.9495C115.602 23.5502 116.043 24.0571 116.601 24.4049C117.159 24.7527 117.808 24.9255 118.465 24.9009C119.09 24.8911 119.702 24.7226 120.244 24.4113C120.786 24.1 121.24 23.6564 121.564 23.1215ZM114.799 20.8054L120.567 18.4255C120.344 17.9885 119.997 17.6266 119.57 17.3845C119.143 17.1425 118.655 17.031 118.165 17.0637C117.697 17.0843 117.238 17.1978 116.814 17.3978C116.39 17.5978 116.011 17.8802 115.697 18.2285C115.384 18.5769 115.143 18.9842 114.989 19.4266C114.835 19.869 114.77 20.3378 114.799 20.8054Z" fill="#2196F3"/>
<path d="M15.1155 16.8816L0.728516 31.955C0.890037 32.5276 1.18034 33.0557 1.57724 33.4989C1.97413 33.9421 2.46711 34.2887 3.01848 34.5122C3.56985 34.7357 4.16503 34.8301 4.7585 34.7884C5.35197 34.7466 5.92803 34.5696 6.44265 34.2711L22.6311 25.0511L15.1155 16.8816Z" fill="#EA4335"/>
<path d="M29.664 14.319L22.6632 10.3096L14.7832 17.2247L22.6951 25.0292L29.6426 21.0626C30.258 20.7403 30.7736 20.2558 31.1333 19.6614C31.493 19.067 31.6832 18.3855 31.6832 17.6908C31.6832 16.9961 31.493 16.3146 31.1333 15.7202C30.7736 15.1258 30.258 14.6413 29.6426 14.319H29.664Z" fill="#FBBC04"/>
<path d="M0.72845 3.35166C0.641428 3.67324 0.598106 4.00508 0.599649 4.33822V30.9687C0.600669 31.3018 0.643829 31.6331 0.72845 31.9549L15.6089 17.2679L0.72879 3.35132L0.72845 3.35166Z" fill="#4285F4"/>
<path d="M15.2229 17.6533L22.6631 10.3096L6.49567 1.04715C5.88741 0.690772 5.19556 0.501979 4.49059 0.500006C3.63949 0.498536 2.81124 0.77535 2.13205 1.28827C1.45287 1.80118 0.959987 2.52208 0.728516 3.3411L15.2229 17.6533Z" fill="#34A853"/>
</g>
<defs>
<clipPath id="clip0_427_2596">
<rect width="174" height="34.3242" fill="white" transform="translate(0.599609 0.5)"/>
</clipPath>
</defs>
</svg>
