<svg width="65" height="65" viewBox="0 0 65 65" fill="none" xmlns="http://www.w3.org/2000/svg">
<circle cx="32.5" cy="32.5" r="32.5" fill="#FFDDF6"/>
<g clip-path="url(#clip0_1_8833)">
<path d="M24.2856 18.6677C26.1801 20.0492 27.6141 21.9902 28.8351 23.7737L29.7921 25.1807C30.0893 25.615 30.2252 26.1396 30.1765 26.6636C30.1277 27.1877 29.8973 27.6781 29.5251 28.0502L27.4911 30.0842L27.7056 30.5402C28.2306 31.6037 29.1366 33.1352 30.5001 34.5002C31.4416 35.4275 32.503 36.2246 33.6561 36.8702L34.2066 37.1657L34.6971 37.4087L34.9161 37.5092L36.9486 35.4752C37.3221 35.1022 37.8147 34.8721 38.3406 34.8253C38.8664 34.7784 39.3919 34.9176 39.8256 35.2187L41.3466 36.2732C43.0746 37.4882 44.8791 38.8727 46.2816 40.6697C46.524 40.9816 46.6782 41.3528 46.7281 41.7447C46.778 42.1365 46.7217 42.5346 46.5651 42.8972C45.3096 45.8267 42.1326 48.3212 38.8281 48.1982L38.3781 48.1742L38.0286 48.1442L37.6416 48.0992L37.2201 48.0422L36.7626 47.9657L36.2736 47.8697L35.7546 47.7542L35.2056 47.6132L34.6281 47.4482L34.0251 47.2532C31.2561 46.3142 27.7416 44.4692 24.1356 40.8632C20.5311 37.2587 18.6861 33.7442 17.7471 30.9752L17.5521 30.3722L17.3871 29.7947L17.2461 29.2457L17.1291 28.7267C17.0953 28.5642 17.0638 28.4011 17.0346 28.2377L16.9596 27.7802L16.8996 27.3587L16.8561 26.9717L16.8261 26.6222L16.8021 26.1722C16.6806 22.8782 19.2021 19.6787 22.1181 18.4292C22.469 18.2777 22.8534 18.22 23.2334 18.2618C23.6134 18.3036 23.976 18.4435 24.2856 18.6677ZM22.8951 21.3797C21.2871 22.2197 19.7301 24.1397 19.8006 26.0612L19.8306 26.5532L19.8636 26.8607L19.9071 27.2057L19.9671 27.5852L20.0436 28.0007L20.1411 28.4477L20.2611 28.9277L20.4051 29.4362L20.5761 29.9732C20.6391 30.1562 20.7051 30.3437 20.7771 30.5357L21.0081 31.1237L21.2721 31.7342C22.2141 33.8072 23.7501 36.2342 26.2596 38.7422C28.7676 41.2502 31.1946 42.7877 33.2676 43.7297L33.8781 43.9937L34.4661 44.2247C34.6581 44.2967 34.8456 44.3627 35.0286 44.4257L35.5656 44.5967L36.0756 44.7407L36.5541 44.8607L37.0011 44.9582L37.4166 45.0347L37.7976 45.0947L38.1426 45.1397L38.4486 45.1697L38.9406 45.1997C40.8366 45.2702 42.7716 43.7222 43.6086 42.1352C42.5406 40.8827 41.2146 39.8552 39.7521 38.8202L38.6301 38.0387L38.3451 38.3372L37.7361 39.0017L37.4136 39.3407C36.5346 40.2362 35.5086 40.9967 34.2786 40.5002L33.9396 40.3577L33.5256 40.1717L33.2946 40.0622L32.7876 39.8087L32.2311 39.5087C30.8228 38.725 29.5274 37.7536 28.3806 36.6212C27.2482 35.4743 26.2768 34.179 25.4931 32.7707L25.1931 32.2157L24.9381 31.7072L24.6441 31.0622L24.5001 30.7202C24.0336 29.5667 24.6756 28.5932 25.4961 27.7502L25.8321 27.4202L26.6676 26.6507L26.9676 26.3657L26.2581 25.3262C25.2036 23.7962 24.1731 22.4162 22.8936 21.3782L22.8951 21.3797ZM36.4896 24.0602L36.6636 24.0797C37.7554 24.2723 38.7583 24.8056 39.5284 25.6032C40.2985 26.4008 40.7964 27.4218 40.9506 28.5197C41.0055 28.8995 40.9129 29.2859 40.6917 29.5994C40.4704 29.9129 40.1375 30.1298 39.7612 30.2053C39.385 30.2808 38.9941 30.2093 38.6691 30.0054C38.344 29.8015 38.1094 29.4808 38.0136 29.1092L37.9791 28.9367C37.9187 28.5064 37.735 28.1027 37.4502 27.7745C37.1654 27.4463 36.7916 27.2076 36.3741 27.0872L36.1416 27.0347C35.7649 26.9679 35.428 26.7598 35.1997 26.4529C34.9714 26.1459 34.8691 25.7634 34.9135 25.3834C34.958 25.0035 35.1459 24.6549 35.4389 24.4089C35.7318 24.163 36.1077 24.0382 36.4896 24.0602ZM36.5001 19.5002C38.887 19.5002 41.1762 20.4484 42.864 22.1362C44.5519 23.8241 45.5001 26.1133 45.5001 28.5002C45.4996 28.8825 45.3533 29.2502 45.0908 29.5283C44.8283 29.8063 44.4696 29.9736 44.088 29.996C43.7063 30.0184 43.3305 29.8942 43.0373 29.6488C42.7441 29.4034 42.5557 29.0553 42.5106 28.6757L42.5001 28.5002C42.5006 26.9768 41.9214 25.5103 40.8801 24.3985C39.8387 23.2866 38.4132 22.6128 36.8931 22.5137L36.5001 22.5002C36.1022 22.5002 35.7207 22.3422 35.4394 22.0609C35.1581 21.7796 35.0001 21.398 35.0001 21.0002C35.0001 20.6024 35.1581 20.2208 35.4394 19.9395C35.7207 19.6582 36.1022 19.5002 36.5001 19.5002Z" fill="#F04AC5"/>
</g>
<defs>
<clipPath id="clip0_1_8833">
<rect width="36" height="36" fill="white" transform="translate(14 15)"/>
</clipPath>
</defs>
</svg>
