<?xml version="1.0" encoding="UTF-8" standalone="no"?>
<svg
   viewBox="0 0 333333 333333"
   shape-rendering="geometricPrecision"
   text-rendering="geometricPrecision"
   image-rendering="optimizeQuality"
   fill-rule="evenodd"
   clip-rule="evenodd"
   version="1.1"
   id="svg4"
   sodipodi:docname="LinkedIn.svg"
   inkscape:version="1.2.2 (b0a8486541, 2022-12-01)"
   xmlns:inkscape="http://www.inkscape.org/namespaces/inkscape"
   xmlns:sodipodi="http://sodipodi.sourceforge.net/DTD/sodipodi-0.dtd"
   xmlns="http://www.w3.org/2000/svg"
   xmlns:svg="http://www.w3.org/2000/svg">
  <defs
     id="defs8" />
  <sodipodi:namedview
     id="namedview6"
     pagecolor="#505050"
     bordercolor="#ffffff"
     borderopacity="1"
     inkscape:showpageshadow="0"
     inkscape:pageopacity="0"
     inkscape:pagecheckerboard="1"
     inkscape:deskcolor="#505050"
     showgrid="false"
     inkscape:zoom="0.01"
     inkscape:cx="234250"
     inkscape:cy="217750"
     inkscape:window-width="1920"
     inkscape:window-height="1003"
     inkscape:window-x="0"
     inkscape:window-y="40"
     inkscape:window-maximized="1"
     inkscape:current-layer="svg4" />
  <rect
     style="fill:#ffffff;stroke:#000000;stroke-width:7.3599"
     id="rect289"
     width="186299.33"
     height="158515.05"
     x="67322.867"
     y="85425.422"
     ry="33.420692" />
  <path
     d="M166667 0c92048 0 166667 74619 166667 166667s-74619 166667-166667 166667S0 258715 0 166667 74619 0 166667 0zm-18220 138885h28897v14814l418 1c4024-7220 13865-14814 28538-14814 30514-1 36157 18989 36157 43691v50320l-30136 1v-44607c0-10634-221-24322-15670-24322-15691 0-18096 11575-18096 23548v45382h-30109v-94013zm-20892-26114c0 8650-7020 15670-15670 15670s-15672-7020-15672-15670 7022-15670 15672-15670 15670 7020 15670 15670zm-31342 26114h31342v94013H96213v-94013z"
     fill="#0077b5"
     id="path2" />
</svg>
