<svg width="166" height="44" viewBox="0 0 166 44" fill="none" xmlns="http://www.w3.org/2000/svg">
<path d="M22.6504 2.99976H4.71289C2.59883 2.99976 0.869141 4.72944 0.869141 6.84351V40.156C0.869141 42.2701 2.59883 43.9998 4.71289 43.9998H22.6504C24.7645 43.9998 26.4941 42.2701 26.4941 40.156V6.84351C26.4941 4.72944 24.7645 2.99976 22.6504 2.99976ZM8.55664 4.92163H18.8066V6.20288H8.55664V4.92163ZM13.6816 41.4373C13.002 41.4373 12.3502 41.1673 11.8697 40.6867C11.3891 40.2062 11.1191 39.5544 11.1191 38.8748C11.1191 38.1951 11.3891 37.5434 11.8697 37.0628C12.3502 36.5822 13.002 36.3123 13.6816 36.3123C14.3613 36.3123 15.013 36.5822 15.4936 37.0628C15.9742 37.5434 16.2441 38.1951 16.2441 38.8748C16.2441 39.5544 15.9742 40.2062 15.4936 40.6867C15.013 41.1673 14.3613 41.4373 13.6816 41.4373ZM23.9316 33.7498H3.43164V8.12476H23.9316V33.7498Z" fill="#2196F3"/>
<path d="M66.516 11C66.404 10.672 66.288 10.348 66.168 10.028C66.048 9.708 65.932 9.38 65.82 9.044H62.316C62.204 9.38 62.088 9.712 61.968 10.04C61.856 10.36 61.744 10.68 61.632 11H60.06C60.372 10.112 60.668 9.292 60.948 8.54C61.228 7.788 61.5 7.076 61.764 6.404C62.036 5.732 62.304 5.092 62.568 4.484C62.832 3.876 63.104 3.276 63.384 2.684H64.812C65.092 3.276 65.364 3.876 65.628 4.484C65.892 5.092 66.156 5.732 66.42 6.404C66.692 7.076 66.968 7.788 67.248 8.54C67.536 9.292 67.836 10.112 68.148 11H66.516ZM64.068 4.292C63.884 4.716 63.672 5.232 63.432 5.84C63.2 6.448 62.956 7.108 62.7 7.82H65.436C65.18 7.108 64.932 6.444 64.692 5.828C64.452 5.212 64.244 4.7 64.068 4.292ZM70.5242 11C70.1242 10.176 69.7122 9.232 69.2882 8.168C68.8722 7.096 68.4922 5.948 68.1482 4.724H69.6962C69.7842 5.076 69.8842 5.456 69.9962 5.864C70.1162 6.264 70.2402 6.668 70.3682 7.076C70.5042 7.476 70.6402 7.868 70.7762 8.252C70.9202 8.628 71.0522 8.968 71.1722 9.272C71.2922 8.968 71.4202 8.628 71.5562 8.252C71.6922 7.868 71.8242 7.476 71.9522 7.076C72.0882 6.668 72.2162 6.264 72.3362 5.864C72.4562 5.456 72.5602 5.076 72.6482 4.724H74.1482C73.8042 5.948 73.4202 7.096 72.9962 8.168C72.5802 9.232 72.1722 10.176 71.7722 11H70.5242ZM77.4406 9.98C77.8886 9.98 78.2286 9.956 78.4606 9.908V8.3C78.3806 8.276 78.2646 8.252 78.1126 8.228C77.9606 8.204 77.7926 8.192 77.6086 8.192C77.4486 8.192 77.2846 8.204 77.1166 8.228C76.9566 8.252 76.8086 8.296 76.6726 8.36C76.5446 8.424 76.4406 8.516 76.3606 8.636C76.2806 8.748 76.2406 8.892 76.2406 9.068C76.2406 9.412 76.3486 9.652 76.5646 9.788C76.7806 9.916 77.0726 9.98 77.4406 9.98ZM77.3206 4.568C77.8006 4.568 78.2046 4.628 78.5326 4.748C78.8606 4.868 79.1206 5.036 79.3126 5.252C79.5126 5.468 79.6526 5.732 79.7326 6.044C79.8206 6.348 79.8646 6.684 79.8646 7.052V10.856C79.6406 10.904 79.3006 10.96 78.8446 11.024C78.3966 11.096 77.8886 11.132 77.3206 11.132C76.9446 11.132 76.6006 11.096 76.2886 11.024C75.9766 10.952 75.7086 10.836 75.4846 10.676C75.2686 10.516 75.0966 10.308 74.9686 10.052C74.8486 9.796 74.7886 9.48 74.7886 9.104C74.7886 8.744 74.8566 8.44 74.9926 8.192C75.1366 7.944 75.3286 7.744 75.5686 7.592C75.8086 7.432 76.0846 7.32 76.3966 7.256C76.7166 7.184 77.0486 7.148 77.3926 7.148C77.5526 7.148 77.7206 7.16 77.8966 7.184C78.0726 7.2 78.2606 7.232 78.4606 7.28V7.04C78.4606 6.872 78.4406 6.712 78.4006 6.56C78.3606 6.408 78.2886 6.276 78.1846 6.164C78.0886 6.044 77.9566 5.952 77.7886 5.888C77.6286 5.824 77.4246 5.792 77.1766 5.792C76.8406 5.792 76.5326 5.816 76.2526 5.864C75.9726 5.912 75.7446 5.968 75.5686 6.032L75.3886 4.856C75.5726 4.792 75.8406 4.728 76.1926 4.664C76.5446 4.6 76.9206 4.568 77.3206 4.568ZM83.1068 11H81.6548V4.724H83.1068V11ZM83.2628 2.888C83.2628 3.16 83.1748 3.376 82.9988 3.536C82.8228 3.696 82.6148 3.776 82.3748 3.776C82.1268 3.776 81.9148 3.696 81.7388 3.536C81.5628 3.376 81.4748 3.16 81.4748 2.888C81.4748 2.608 81.5628 2.388 81.7388 2.228C81.9148 2.068 82.1268 1.988 82.3748 1.988C82.6148 1.988 82.8228 2.068 82.9988 2.228C83.1748 2.388 83.2628 2.608 83.2628 2.888ZM87.1432 11.12C86.7112 11.112 86.3512 11.064 86.0632 10.976C85.7832 10.888 85.5592 10.764 85.3912 10.604C85.2232 10.436 85.1032 10.232 85.0312 9.992C84.9672 9.744 84.9352 9.464 84.9352 9.152V1.928L86.3872 1.688V8.876C86.3872 9.052 86.3992 9.2 86.4232 9.32C86.4552 9.44 86.5072 9.544 86.5792 9.632C86.6512 9.712 86.7472 9.776 86.8672 9.824C86.9952 9.864 87.1552 9.896 87.3472 9.92L87.1432 11.12ZM90.7297 9.98C91.1777 9.98 91.5177 9.956 91.7497 9.908V8.3C91.6697 8.276 91.5537 8.252 91.4017 8.228C91.2497 8.204 91.0817 8.192 90.8977 8.192C90.7377 8.192 90.5737 8.204 90.4057 8.228C90.2457 8.252 90.0977 8.296 89.9617 8.36C89.8337 8.424 89.7297 8.516 89.6497 8.636C89.5697 8.748 89.5297 8.892 89.5297 9.068C89.5297 9.412 89.6377 9.652 89.8537 9.788C90.0697 9.916 90.3617 9.98 90.7297 9.98ZM90.6097 4.568C91.0897 4.568 91.4937 4.628 91.8217 4.748C92.1497 4.868 92.4097 5.036 92.6017 5.252C92.8017 5.468 92.9417 5.732 93.0217 6.044C93.1097 6.348 93.1537 6.684 93.1537 7.052V10.856C92.9297 10.904 92.5897 10.96 92.1337 11.024C91.6857 11.096 91.1777 11.132 90.6097 11.132C90.2337 11.132 89.8897 11.096 89.5777 11.024C89.2657 10.952 88.9977 10.836 88.7737 10.676C88.5577 10.516 88.3857 10.308 88.2577 10.052C88.1377 9.796 88.0777 9.48 88.0777 9.104C88.0777 8.744 88.1457 8.44 88.2817 8.192C88.4257 7.944 88.6177 7.744 88.8577 7.592C89.0977 7.432 89.3737 7.32 89.6857 7.256C90.0057 7.184 90.3377 7.148 90.6817 7.148C90.8417 7.148 91.0097 7.16 91.1857 7.184C91.3617 7.2 91.5497 7.232 91.7497 7.28V7.04C91.7497 6.872 91.7297 6.712 91.6897 6.56C91.6497 6.408 91.5777 6.276 91.4737 6.164C91.3777 6.044 91.2457 5.952 91.0777 5.888C90.9177 5.824 90.7137 5.792 90.4657 5.792C90.1297 5.792 89.8217 5.816 89.5417 5.864C89.2617 5.912 89.0337 5.968 88.8577 6.032L88.6777 4.856C88.8617 4.792 89.1297 4.728 89.4817 4.664C89.8337 4.6 90.2097 4.568 90.6097 4.568ZM99.0958 7.844C99.0958 7.228 98.9718 6.74 98.7238 6.38C98.4838 6.02 98.0998 5.84 97.5718 5.84C97.3318 5.84 97.1038 5.876 96.8878 5.948C96.6798 6.02 96.5118 6.1 96.3838 6.188V9.8C96.4878 9.824 96.6198 9.848 96.7798 9.872C96.9478 9.888 97.1478 9.896 97.3798 9.896C97.9158 9.896 98.3358 9.716 98.6398 9.356C98.9438 8.988 99.0958 8.484 99.0958 7.844ZM100.584 7.868C100.584 8.372 100.508 8.828 100.356 9.236C100.212 9.636 99.9998 9.98 99.7198 10.268C99.4478 10.556 99.1158 10.776 98.7238 10.928C98.3318 11.08 97.8878 11.156 97.3918 11.156C96.9118 11.156 96.4518 11.12 96.0118 11.048C95.5798 10.976 95.2198 10.896 94.9318 10.808V1.928L96.3838 1.688V4.94C96.5518 4.852 96.7558 4.772 96.9958 4.7C97.2438 4.628 97.5158 4.592 97.8118 4.592C98.2518 4.592 98.6438 4.672 98.9878 4.832C99.3398 4.984 99.6318 5.204 99.8638 5.492C100.096 5.78 100.272 6.128 100.392 6.536C100.52 6.936 100.584 7.38 100.584 7.868ZM104.264 11.12C103.832 11.112 103.472 11.064 103.184 10.976C102.904 10.888 102.68 10.764 102.512 10.604C102.344 10.436 102.224 10.232 102.152 9.992C102.088 9.744 102.056 9.464 102.056 9.152V1.928L103.508 1.688V8.876C103.508 9.052 103.52 9.2 103.544 9.32C103.576 9.44 103.628 9.544 103.7 9.632C103.772 9.712 103.868 9.776 103.988 9.824C104.116 9.864 104.276 9.896 104.468 9.92L104.264 11.12ZM105.295 7.892C105.295 7.34 105.375 6.856 105.535 6.44C105.703 6.024 105.923 5.68 106.195 5.408C106.467 5.128 106.779 4.92 107.131 4.784C107.483 4.64 107.843 4.568 108.211 4.568C109.075 4.568 109.747 4.836 110.227 5.372C110.715 5.908 110.959 6.708 110.959 7.772C110.959 7.852 110.955 7.944 110.947 8.048C110.947 8.144 110.943 8.232 110.935 8.312H106.795C106.835 8.816 107.011 9.208 107.323 9.488C107.643 9.76 108.103 9.896 108.703 9.896C109.055 9.896 109.375 9.864 109.663 9.8C109.959 9.736 110.191 9.668 110.359 9.596L110.551 10.784C110.471 10.824 110.359 10.868 110.215 10.916C110.079 10.956 109.919 10.992 109.735 11.024C109.559 11.064 109.367 11.096 109.159 11.12C108.951 11.144 108.739 11.156 108.523 11.156C107.971 11.156 107.491 11.076 107.083 10.916C106.675 10.748 106.339 10.52 106.075 10.232C105.811 9.936 105.615 9.592 105.487 9.2C105.359 8.8 105.295 8.364 105.295 7.892ZM109.507 7.244C109.507 7.044 109.479 6.856 109.423 6.68C109.367 6.496 109.283 6.34 109.171 6.212C109.067 6.076 108.935 5.972 108.775 5.9C108.623 5.82 108.439 5.78 108.223 5.78C107.999 5.78 107.803 5.824 107.635 5.912C107.467 5.992 107.323 6.1 107.203 6.236C107.091 6.372 107.003 6.528 106.939 6.704C106.875 6.88 106.831 7.06 106.807 7.244H109.507ZM120.975 7.856C120.975 8.352 120.903 8.804 120.759 9.212C120.615 9.62 120.411 9.968 120.147 10.256C119.883 10.544 119.563 10.768 119.187 10.928C118.819 11.088 118.411 11.168 117.963 11.168C117.515 11.168 117.107 11.088 116.739 10.928C116.371 10.768 116.055 10.544 115.791 10.256C115.527 9.968 115.319 9.62 115.167 9.212C115.023 8.804 114.951 8.352 114.951 7.856C114.951 7.36 115.023 6.912 115.167 6.512C115.319 6.104 115.527 5.756 115.791 5.468C116.063 5.18 116.383 4.96 116.751 4.808C117.119 4.648 117.523 4.568 117.963 4.568C118.403 4.568 118.807 4.648 119.175 4.808C119.551 4.96 119.871 5.18 120.135 5.468C120.399 5.756 120.603 6.104 120.747 6.512C120.899 6.912 120.975 7.36 120.975 7.856ZM119.487 7.856C119.487 7.232 119.351 6.74 119.079 6.38C118.815 6.012 118.443 5.828 117.963 5.828C117.483 5.828 117.107 6.012 116.835 6.38C116.571 6.74 116.439 7.232 116.439 7.856C116.439 8.488 116.571 8.988 116.835 9.356C117.107 9.724 117.483 9.908 117.963 9.908C118.443 9.908 118.815 9.724 119.079 9.356C119.351 8.988 119.487 8.488 119.487 7.856ZM122.471 4.928C122.751 4.848 123.115 4.772 123.563 4.7C124.011 4.628 124.507 4.592 125.051 4.592C125.563 4.592 125.991 4.664 126.335 4.808C126.679 4.944 126.951 5.14 127.151 5.396C127.359 5.644 127.503 5.948 127.583 6.308C127.671 6.66 127.715 7.048 127.715 7.472V11H126.263V7.7C126.263 7.364 126.239 7.08 126.191 6.848C126.151 6.608 126.079 6.416 125.975 6.272C125.879 6.12 125.743 6.012 125.567 5.948C125.399 5.876 125.191 5.84 124.943 5.84C124.759 5.84 124.567 5.852 124.367 5.876C124.167 5.9 124.019 5.92 123.923 5.936V11H122.471V4.928ZM132.219 3.068L133.671 2.828V4.724H135.903V5.936H133.671V8.492C133.671 8.996 133.751 9.356 133.911 9.572C134.071 9.788 134.343 9.896 134.727 9.896C134.991 9.896 135.223 9.868 135.423 9.812C135.631 9.756 135.795 9.704 135.915 9.656L136.155 10.808C135.987 10.88 135.767 10.952 135.495 11.024C135.223 11.104 134.903 11.144 134.535 11.144C134.087 11.144 133.711 11.084 133.407 10.964C133.111 10.844 132.875 10.672 132.699 10.448C132.523 10.216 132.399 9.94 132.327 9.62C132.255 9.292 132.219 8.92 132.219 8.504V3.068ZM137.307 11V1.928L138.759 1.688V4.796C138.919 4.74 139.103 4.692 139.311 4.652C139.527 4.612 139.739 4.592 139.947 4.592C140.451 4.592 140.867 4.664 141.195 4.808C141.531 4.944 141.799 5.14 141.999 5.396C142.199 5.644 142.339 5.944 142.419 6.296C142.507 6.648 142.551 7.04 142.551 7.472V11H141.099V7.7C141.099 7.364 141.075 7.08 141.027 6.848C140.987 6.608 140.915 6.416 140.811 6.272C140.715 6.12 140.583 6.012 140.415 5.948C140.247 5.876 140.039 5.84 139.791 5.84C139.599 5.84 139.403 5.86 139.203 5.9C139.003 5.94 138.855 5.976 138.759 6.008V11H137.307ZM143.943 7.892C143.943 7.34 144.023 6.856 144.183 6.44C144.351 6.024 144.571 5.68 144.843 5.408C145.115 5.128 145.427 4.92 145.779 4.784C146.131 4.64 146.491 4.568 146.859 4.568C147.723 4.568 148.395 4.836 148.875 5.372C149.363 5.908 149.607 6.708 149.607 7.772C149.607 7.852 149.603 7.944 149.595 8.048C149.595 8.144 149.591 8.232 149.583 8.312H145.443C145.483 8.816 145.659 9.208 145.971 9.488C146.291 9.76 146.751 9.896 147.351 9.896C147.703 9.896 148.023 9.864 148.311 9.8C148.607 9.736 148.839 9.668 149.007 9.596L149.199 10.784C149.119 10.824 149.007 10.868 148.863 10.916C148.727 10.956 148.567 10.992 148.383 11.024C148.207 11.064 148.015 11.096 147.807 11.12C147.599 11.144 147.387 11.156 147.171 11.156C146.619 11.156 146.139 11.076 145.731 10.916C145.323 10.748 144.987 10.52 144.723 10.232C144.459 9.936 144.263 9.592 144.135 9.2C144.007 8.8 143.943 8.364 143.943 7.892ZM148.155 7.244C148.155 7.044 148.127 6.856 148.071 6.68C148.015 6.496 147.931 6.34 147.819 6.212C147.715 6.076 147.583 5.972 147.423 5.9C147.271 5.82 147.087 5.78 146.871 5.78C146.647 5.78 146.451 5.824 146.283 5.912C146.115 5.992 145.971 6.1 145.851 6.236C145.739 6.372 145.651 6.528 145.587 6.704C145.523 6.88 145.479 7.06 145.455 7.244H148.155Z" fill="#2196F3"/>
<path d="M71.489 37C71.2743 36.3713 71.052 35.7503 70.822 35.137C70.592 34.5237 70.3697 33.895 70.155 33.251H63.439C63.2243 33.895 63.002 34.5313 62.772 35.16C62.5573 35.7733 62.3427 36.3867 62.128 37H59.115C59.713 35.298 60.2803 33.7263 60.817 32.285C61.3537 30.8437 61.875 29.479 62.381 28.191C62.9023 26.903 63.416 25.6763 63.922 24.511C64.428 23.3457 64.9493 22.1957 65.486 21.061H68.223C68.7597 22.1957 69.281 23.3457 69.787 24.511C70.293 25.6763 70.799 26.903 71.305 28.191C71.8263 29.479 72.3553 30.8437 72.892 32.285C73.444 33.7263 74.019 35.298 74.617 37H71.489ZM66.797 24.143C66.4443 24.9557 66.038 25.9447 65.578 27.11C65.1333 28.2753 64.6657 29.5403 64.175 30.905H69.419C68.9283 29.5403 68.453 28.2677 67.993 27.087C67.533 25.9063 67.1343 24.925 66.797 24.143ZM84.4747 31.043C84.4747 29.801 84.191 28.835 83.6237 28.145C83.0717 27.455 82.1747 27.11 80.9327 27.11C80.672 27.11 80.396 27.1253 80.1047 27.156C79.8287 27.1713 79.5527 27.2173 79.2767 27.294V34.171C79.522 34.3397 79.844 34.5007 80.2427 34.654C80.6567 34.792 81.0937 34.861 81.5537 34.861C82.5657 34.861 83.3017 34.516 83.7617 33.826C84.237 33.136 84.4747 32.2083 84.4747 31.043ZM87.3267 30.997C87.3267 31.917 87.204 32.7603 86.9587 33.527C86.7287 34.2937 86.3913 34.953 85.9467 35.505C85.502 36.057 84.9423 36.4863 84.2677 36.793C83.6083 37.0997 82.857 37.253 82.0137 37.253C81.4463 37.253 80.925 37.184 80.4497 37.046C79.9743 36.908 79.5833 36.7547 79.2767 36.586V41.255H76.4937V25.362C77.061 25.2087 77.7587 25.063 78.5867 24.925C79.4147 24.787 80.2887 24.718 81.2087 24.718C82.1593 24.718 83.0103 24.8637 83.7617 25.155C84.513 25.4463 85.1493 25.868 85.6707 26.42C86.2073 26.9567 86.6137 27.616 86.8897 28.398C87.181 29.1647 87.3267 30.031 87.3267 30.997ZM98.1758 31.043C98.1758 29.801 97.8922 28.835 97.3248 28.145C96.7728 27.455 95.8758 27.11 94.6338 27.11C94.3732 27.11 94.0972 27.1253 93.8058 27.156C93.5298 27.1713 93.2538 27.2173 92.9778 27.294V34.171C93.2232 34.3397 93.5452 34.5007 93.9438 34.654C94.3578 34.792 94.7948 34.861 95.2548 34.861C96.2668 34.861 97.0028 34.516 97.4628 33.826C97.9382 33.136 98.1758 32.2083 98.1758 31.043ZM101.028 30.997C101.028 31.917 100.905 32.7603 100.66 33.527C100.43 34.2937 100.092 34.953 99.6478 35.505C99.2032 36.057 98.6435 36.4863 97.9688 36.793C97.3095 37.0997 96.5582 37.253 95.7148 37.253C95.1475 37.253 94.6262 37.184 94.1508 37.046C93.6755 36.908 93.2845 36.7547 92.9778 36.586V41.255H90.1948V25.362C90.7622 25.2087 91.4598 25.063 92.2878 24.925C93.1158 24.787 93.9898 24.718 94.9098 24.718C95.8605 24.718 96.7115 24.8637 97.4628 25.155C98.2142 25.4463 98.8505 25.868 99.3718 26.42C99.9085 26.9567 100.315 27.616 100.591 28.398C100.882 29.1647 101.028 30.031 101.028 30.997ZM113.266 34.838C114.309 34.838 115.068 34.6617 115.543 34.309C116.018 33.9563 116.256 33.458 116.256 32.814C116.256 32.4307 116.172 32.101 116.003 31.825C115.85 31.549 115.62 31.3037 115.313 31.089C115.022 30.859 114.661 30.652 114.232 30.468C113.803 30.2687 113.312 30.077 112.76 29.893C112.208 29.6937 111.671 29.479 111.15 29.249C110.644 29.0037 110.192 28.7047 109.793 28.352C109.41 27.9993 109.095 27.5777 108.85 27.087C108.62 26.5963 108.505 26.006 108.505 25.316C108.505 23.8747 109.003 22.7477 110 21.935C110.997 21.107 112.354 20.693 114.071 20.693C115.068 20.693 115.949 20.808 116.716 21.038C117.498 21.2527 118.111 21.4903 118.556 21.751L117.659 24.097C117.138 23.8057 116.563 23.5833 115.934 23.43C115.321 23.2767 114.684 23.2 114.025 23.2C113.243 23.2 112.63 23.361 112.185 23.683C111.756 24.005 111.541 24.4573 111.541 25.04C111.541 25.3927 111.61 25.6993 111.748 25.96C111.901 26.2053 112.108 26.4277 112.369 26.627C112.645 26.8263 112.959 27.0103 113.312 27.179C113.68 27.3477 114.079 27.5087 114.508 27.662C115.259 27.938 115.926 28.2217 116.509 28.513C117.107 28.789 117.605 29.1263 118.004 29.525C118.418 29.9083 118.732 30.3683 118.947 30.905C119.162 31.4263 119.269 32.0627 119.269 32.814C119.269 34.2553 118.755 35.3747 117.728 36.172C116.716 36.954 115.229 37.345 113.266 37.345C112.607 37.345 112.001 37.299 111.449 37.207C110.912 37.1303 110.429 37.0307 110 36.908C109.586 36.7853 109.226 36.6627 108.919 36.54C108.612 36.402 108.367 36.2793 108.183 36.172L109.034 33.803C109.448 34.033 110.008 34.263 110.713 34.493C111.418 34.723 112.269 34.838 113.266 34.838ZM121.547 21.797L124.33 21.337V24.971H128.608V27.294H124.33V32.193C124.33 33.159 124.483 33.849 124.79 34.263C125.097 34.677 125.618 34.884 126.354 34.884C126.86 34.884 127.305 34.8303 127.688 34.723C128.087 34.6157 128.401 34.516 128.631 34.424L129.091 36.632C128.769 36.77 128.347 36.908 127.826 37.046C127.305 37.1993 126.691 37.276 125.986 37.276C125.127 37.276 124.407 37.161 123.824 36.931C123.257 36.701 122.804 36.3713 122.467 35.942C122.13 35.4973 121.892 34.9683 121.754 34.355C121.616 33.7263 121.547 33.0133 121.547 32.216V21.797ZM141.908 30.974C141.908 31.9247 141.77 32.791 141.494 33.573C141.218 34.355 140.827 35.022 140.321 35.574C139.815 36.126 139.201 36.5553 138.481 36.862C137.775 37.1687 136.993 37.322 136.135 37.322C135.276 37.322 134.494 37.1687 133.789 36.862C133.083 36.5553 132.478 36.126 131.972 35.574C131.466 35.022 131.067 34.355 130.776 33.573C130.5 32.791 130.362 31.9247 130.362 30.974C130.362 30.0233 130.5 29.1647 130.776 28.398C131.067 27.616 131.466 26.949 131.972 26.397C132.493 25.845 133.106 25.4233 133.812 25.132C134.517 24.8253 135.291 24.672 136.135 24.672C136.978 24.672 137.752 24.8253 138.458 25.132C139.178 25.4233 139.792 25.845 140.298 26.397C140.804 26.949 141.195 27.616 141.471 28.398C141.762 29.1647 141.908 30.0233 141.908 30.974ZM139.056 30.974C139.056 29.778 138.795 28.835 138.274 28.145C137.768 27.4397 137.055 27.087 136.135 27.087C135.215 27.087 134.494 27.4397 133.973 28.145C133.467 28.835 133.214 29.778 133.214 30.974C133.214 32.1853 133.467 33.1437 133.973 33.849C134.494 34.5543 135.215 34.907 136.135 34.907C137.055 34.907 137.768 34.5543 138.274 33.849C138.795 33.1437 139.056 32.1853 139.056 30.974ZM151.629 27.478C151.399 27.4013 151.077 27.3247 150.663 27.248C150.264 27.156 149.797 27.11 149.26 27.11C148.953 27.11 148.624 27.1407 148.271 27.202C147.934 27.2633 147.696 27.317 147.558 27.363V37H144.775V25.546C145.312 25.3467 145.979 25.1627 146.776 24.994C147.589 24.81 148.486 24.718 149.467 24.718C149.651 24.718 149.866 24.7333 150.111 24.764C150.356 24.7793 150.602 24.81 150.847 24.856C151.092 24.8867 151.33 24.9327 151.56 24.994C151.79 25.04 151.974 25.086 152.112 25.132L151.629 27.478ZM153.384 31.043C153.384 29.985 153.538 29.0573 153.844 28.26C154.166 27.4627 154.588 26.8033 155.109 26.282C155.631 25.7453 156.229 25.3467 156.903 25.086C157.578 24.81 158.268 24.672 158.973 24.672C160.629 24.672 161.917 25.1857 162.837 26.213C163.773 27.2403 164.24 28.7737 164.24 30.813C164.24 30.9663 164.233 31.1427 164.217 31.342C164.217 31.526 164.21 31.6947 164.194 31.848H156.259C156.336 32.814 156.673 33.5653 157.271 34.102C157.885 34.6233 158.766 34.884 159.916 34.884C160.591 34.884 161.204 34.8227 161.756 34.7C162.324 34.5773 162.768 34.447 163.09 34.309L163.458 36.586C163.305 36.6627 163.09 36.747 162.814 36.839C162.554 36.9157 162.247 36.9847 161.894 37.046C161.557 37.1227 161.189 37.184 160.79 37.23C160.392 37.276 159.985 37.299 159.571 37.299C158.513 37.299 157.593 37.1457 156.811 36.839C156.029 36.517 155.385 36.08 154.879 35.528C154.373 34.9607 153.998 34.3013 153.752 33.55C153.507 32.7833 153.384 31.9477 153.384 31.043ZM161.457 29.801C161.457 29.4177 161.404 29.0573 161.296 28.72C161.189 28.3673 161.028 28.0683 160.813 27.823C160.614 27.5623 160.361 27.363 160.054 27.225C159.763 27.0717 159.41 26.995 158.996 26.995C158.567 26.995 158.191 27.0793 157.869 27.248C157.547 27.4013 157.271 27.6083 157.041 27.869C156.827 28.1297 156.658 28.4287 156.535 28.766C156.413 29.1033 156.328 29.4483 156.282 29.801H161.457Z" fill="#2196F3"/>
</svg>
