<svg width="1885" height="919" viewBox="0 0 1885 919" fill="none" xmlns="http://www.w3.org/2000/svg">
<rect width="1884" height="911" fill="url(#paint0_linear_11_3)"/>
<g clip-path="url(#clip0_11_3)">
<path d="M-1438.48 887.857C-1134.64 887.857 -851.056 819.586 -547.216 819.586C-243.376 819.586 40.2079 887.857 344.048 887.857C647.888 887.857 931.472 819.586 1235.31 819.586C1539.15 819.586 1822.74 887.857 2126.58 887.857V1054.74H-1438.48V887.857Z" fill="white" fill-opacity="0.7"/>
<path d="M-1438.48 887.857C-1134.64 887.857 -851.056 819.586 -547.216 819.586C-243.376 819.586 40.2079 887.857 344.048 887.857C647.888 887.857 931.472 819.586 1235.31 819.586C1539.15 819.586 1822.74 887.857 2126.58 887.857V1054.74H-1438.48V887.857Z" fill="white" fill-opacity="0.5"/>
<path d="M-1438.48 887.857C-1134.64 887.857 -851.056 819.586 -547.216 819.586C-243.376 819.586 40.2079 887.857 344.048 887.857C647.888 887.857 931.472 819.586 1235.31 819.586C1539.15 819.586 1822.74 887.857 2126.58 887.857V1054.74H-1438.48V887.857Z" fill="white" fill-opacity="0.3"/>
<path d="M-1438.48 887.857C-1134.64 887.857 -851.056 819.586 -547.216 819.586C-243.376 819.586 40.2079 887.857 344.048 887.857C647.888 887.857 931.472 819.586 1235.31 819.586C1539.15 819.586 1822.74 887.857 2126.58 887.857V1054.74H-1438.48V887.857Z" fill="white"/>
</g>
<defs>
<linearGradient id="paint0_linear_11_3" x1="1851.9" y1="337.608" x2="359.658" y2="1164.51" gradientUnits="userSpaceOnUse">
<stop stop-color="#1C91C7"/>
<stop offset="1" stop-color="#2196F2"/>
</linearGradient>
<clipPath id="clip0_11_3">
<rect width="1884.2" height="106.2" fill="white" transform="translate(0 812)"/>
</clipPath>
</defs>
</svg>
